<svg width="258" height="258" viewBox="0 0 258 258" fill="none" xmlns="http://www.w3.org/2000/svg">
<rect width="258" height="258" rx="60" fill="#0C0C0C"/>
<path d="M207.562 77.2315V203.675L187.178 175.271V138.621L98 222H50.4384L36 212.837L207.562 77.2315Z" fill="#FAFAFA"/>
<path d="M207.562 77.2315V203.675L187.178 175.271V138.621L98 222H50.4384L36 212.837L207.562 77.2315Z" fill="url(#paint0_linear_25_10)"/>
<path d="M222 36L80.1644 151.448L81.0137 84.5616L98 65.3202H50.4384L45.3425 56.1576L72.5205 36H160.849V46.9951L180.384 36H222Z" fill="#FAFAFA"/>
<path d="M222 36L80.1644 151.448L81.0137 84.5616L98 65.3202H50.4384L45.3425 56.1576L72.5205 36H160.849V46.9951L180.384 36H222Z" fill="url(#paint1_linear_25_10)"/>
<path d="M207.562 77.2315V203.675L187.178 175.271V138.621L98 222H50.4384L36 212.837L207.562 77.2315Z" stroke="url(#paint2_linear_25_10)"/>
<path d="M222 36L80.1644 151.448L81.0137 84.5616L98 65.3202H50.4384L45.3425 56.1576L72.5205 36H160.849V46.9951L180.384 36H222Z" stroke="url(#paint3_linear_25_10)"/>
<defs>
<linearGradient id="paint0_linear_25_10" x1="129" y1="36" x2="129" y2="222" gradientUnits="userSpaceOnUse">
<stop stop-color="#FF1A00"/>
<stop offset="1" stop-color="#9D0000"/>
</linearGradient>
<linearGradient id="paint1_linear_25_10" x1="129" y1="36" x2="129" y2="222" gradientUnits="userSpaceOnUse">
<stop stop-color="#FF1A00"/>
<stop offset="1" stop-color="#9D0000"/>
</linearGradient>
<linearGradient id="paint2_linear_25_10" x1="207.98" y1="25.7186" x2="43.4774" y2="226.206" gradientUnits="userSpaceOnUse">
<stop stop-color="#FF0000" stop-opacity="0"/>
<stop offset="1" stop-color="#FF0000"/>
</linearGradient>
<linearGradient id="paint3_linear_25_10" x1="207.98" y1="25.7186" x2="43.4774" y2="226.206" gradientUnits="userSpaceOnUse">
<stop stop-color="#FF0000" stop-opacity="0"/>
<stop offset="1" stop-color="#FF0000"/>
</linearGradient>
</defs>
</svg>
