<svg width="361" height="361" viewBox="0 0 361 361" fill="none" xmlns="http://www.w3.org/2000/svg">
<path d="M264.553 125.113V260.394L242.744 230.005V190.793L147.333 280H96.4475L81 270.197L264.553 125.113Z" stroke="white" stroke-width="2"/>
<path d="M280 81L128.251 204.517L129.16 132.956L147.333 112.369H96.4475L90.9954 102.567L120.073 81H214.575V92.7635L235.475 81H280Z" stroke="white" stroke-width="2"/>
<path d="M287.361 110.084V282.074L259.635 243.438V193.586L138.333 307H73.6393L54 294.537L287.361 110.084Z" stroke="white" stroke-width="1.5"/>
<path d="M307 54L114.073 211.034L115.228 120.054L138.333 93.8818H73.6393L66.7078 81.4187L103.676 54H223.822V68.9557L250.393 54H307Z" stroke="white" stroke-width="1.5"/>
<path d="M309.324 95.6108V302.951L275.9 256.374V196.276L129.667 333H51.6758L28 317.975L309.324 95.6108Z" stroke="white"/>
<path d="M333 28L100.42 217.31L101.813 107.631L129.667 76.0788H51.6758L43.3196 61.0542L87.8858 28H232.726V46.0296L264.758 28H333Z" stroke="white"/>
<path d="M332.132 80.5813V324.631L292.79 269.808V199.069L120.667 360H28.8676L1 342.315L332.132 80.5813Z" stroke="white" stroke-width="0.5"/>
<path d="M360 1L86.242 223.828L87.8813 94.7291L120.667 57.5911H28.8676L19.032 39.9064L71.4886 1H241.973V22.2217L279.676 1H360Z" stroke="white" stroke-width="0.5"/>
</svg>
